<svg width="1200" height="630" viewBox="0 0 1200 630" fill="none" xmlns="http://www.w3.org/2000/svg">
  <rect width="1200" height="630" fill="#1c1b18"/>
  <path d="M0 0h1200v630H0z" fill="url(#vignette)"/>
  <g opacity=".12" stroke="#f8f8f2" stroke-width="1">
    <path d="M0 90h1200M0 180h1200M0 270h1200M0 360h1200M0 450h1200M0 540h1200"/>
    <path d="M90 0v630M180 0v630M270 0v630M360 0v630M450 0v630M540 0v630M630 0v630M720 0v630M810 0v630M900 0v630M990 0v630M1080 0v630"/>
  </g>
  <g transform="translate(408 106)">
    <rect x="104" width="176" height="176" rx="38" fill="#d0ad7c"/>
    <path fill="#1c1b18" d="M139 130V46h25l28 44 28-44h25v84h-22V78l-25 40h-12l-25-40v52z"/>
    <text x="192" y="289" fill="#f8f8f2" font-family="Nunito Sans, Avenir Next, Segoe UI, sans-serif" font-size="108" font-weight="800" letter-spacing=".08em" text-anchor="middle">MPAD</text>
    <text x="192" y="354" fill="#cfc6b8" font-family="Nunito Sans, Avenir Next, Segoe UI, sans-serif" font-size="32" font-weight="700" letter-spacing=".14em" text-anchor="middle">REALTIME PADS</text>
  </g>
  <defs>
    <radialGradient id="vignette" cx="0" cy="0" r="1" gradientUnits="userSpaceOnUse" gradientTransform="translate(600 280) rotate(90) scale(430 620)">
      <stop stop-color="#302a20"/>
      <stop offset=".55" stop-color="#211f1b"/>
      <stop offset="1" stop-color="#151411"/>
    </radialGradient>
  </defs>
</svg>
